<svg width="14" height="10" viewBox="0 0 14 10" fill="none" xmlns="http://www.w3.org/2000/svg">
<path d="M0 0.59375C0 0.436278 0.0625555 0.285255 0.173905 0.173905C0.285255 0.0625556 0.436278 0 0.59375 0H1.0355C1.78758 0 2.23883 0.505875 2.49612 0.976125C2.66792 1.28962 2.79221 1.653 2.88958 1.98233C2.91592 1.98025 2.94233 1.9792 2.96875 1.97917H12.863C13.5201 1.97917 13.9951 2.60775 13.8146 3.24029L12.3674 8.31408C12.2377 8.76918 11.9632 9.1696 11.5855 9.45473C11.2078 9.73985 10.7475 9.89415 10.2742 9.89425H5.56542C5.08843 9.89427 4.62464 9.73764 4.24533 9.44844C3.86602 9.15924 3.59219 8.75347 3.46592 8.2935L2.86425 6.099L1.86675 2.736L1.86596 2.72967C1.74246 2.28079 1.62687 1.86042 1.45429 1.54692C1.28883 1.24213 1.15583 1.1875 1.03629 1.1875H0.59375C0.436278 1.1875 0.285255 1.12494 0.173905 1.01359C0.0625555 0.902245 0 0.751222 0 0.59375ZM4.01612 5.81083L4.61067 7.97921C4.72942 8.40829 5.11971 8.70675 5.56542 8.70675H10.2742C10.4893 8.70675 10.6986 8.63666 10.8703 8.5071C11.042 8.37753 11.1668 8.19555 11.2258 7.98871L12.601 3.16667H3.23396L4.00504 5.76888L4.01612 5.81083Z" fill="#2F1AC4"/>
</svg>
